solid Y Axis Endstop Holder
facet normal -2.5140217808602e-033 -2.74572267817639e-034 -1.0
outer loop
vertex -25.3 24.0 0.0
vertex -24.3 18.8 0.0
vertex -25.3 4.0 0.0
endloop
endfacet
facet normal -2.5140217808602e-033 -2.74572267817639e-034 -1.0
outer loop
vertex -24.3 18.8 0.0
vertex -25.3 24.0 0.0
vertex -24.2454813220625 19.214110472164 0.0
endloop
endfacet
facet normal -2.5140217808602e-033 -2.74572267817639e-034 -1.0
outer loop
vertex -24.2454813220625 19.214110472164 0.0
vertex -25.3 24.0 0.0
vertex -24.0856406460551 19.6 0.0
endloop
endfacet
facet normal -2.5140217808602e-033 -2.74572267817639e-034 -1.0
outer loop
vertex -24.0856406460551 19.6 0.0
vertex -25.3 24.0 0.0
vertex -23.8313708498985 19.9313708498985 0.0
endloop
endfacet
facet normal -2.5140217808602e-033 -2.74572267817639e-034 -1.0
outer loop
vertex -23.8313708498985 19.9313708498985 0.0
vertex -25.3 24.0 0.0
vertex -20.1 24.0 0.0
endloop
endfacet
facet normal -2.5140217808602e-033 -2.74572267817639e-034 -1.0
outer loop
vertex -23.8313708498985 19.9313708498985 0.0
vertex -20.1 24.0 0.0
vertex -23.5 20.1856406460551 0.0
endloop
endfacet
facet normal -2.5140217808602e-033 -2.74572267817639e-034 -1.0
outer loop
vertex -23.5 20.1856406460551 0.0
vertex -20.1 24.0 0.0
vertex -23.114110472164 20.3454813220625 0.0
endloop
endfacet
facet normal -2.5140217808602e-033 -2.74572267817639e-034 -1.0
outer loop
vertex -23.114110472164 20.3454813220625 0.0
vertex -20.1 24.0 0.0
vertex -22.7 20.4 0.0
endloop
endfacet
facet normal -2.5140217808602e-033 -2.74572267817639e-034 -1.0
outer loop
vertex -22.7 20.4 0.0
vertex -20.1 24.0 0.0
vertex -22.285889527836 20.3454813220625 0.0
endloop
endfacet
facet normal -2.5140217808602e-033 -2.74572267817639e-034 -1.0
outer loop
vertex -22.285889527836 20.3454813220625 0.0
vertex -20.1 24.0 0.0
vertex -21.9 20.1856406460551 0.0
endloop
endfacet
facet normal -2.5140217808602e-033 -2.74572267817639e-034 -1.0
outer loop
vertex -21.9 20.1856406460551 0.0
vertex -20.1 24.0 0.0
vertex -21.5686291501015 19.9313708498985 0.0
endloop
endfacet
facet normal -2.5140217808602e-033 -2.74572267817639e-034 -1.0
outer loop
vertex -21.5686291501015 19.9313708498985 0.0
vertex -20.1 24.0 0.0
vertex -21.3143593539449 19.6 0.0
endloop
endfacet
facet normal -2.5140217808602e-033 -2.74572267817639e-034 -1.0
outer loop
vertex -21.3143593539449 19.6 0.0
vertex -20.1 24.0 0.0
vertex -21.1545186779375 19.214110472164 0.0
endloop
endfacet
facet normal -2.5140217808602e-033 -2.74572267817639e-034 -1.0
outer loop
vertex -21.1545186779375 19.214110472164 0.0
vertex -20.1 24.0 0.0
vertex -21.1 18.8 0.0
endloop
endfacet
facet normal -2.5140217808602e-033 -2.74572267817639e-034 -1.0
outer loop
vertex -21.1 18.8 0.0
vertex -20.1 24.0 0.0
vertex -21.1 9.2 0.0
endloop
endfacet
facet normal -2.5140217808602e-033 -2.74572267817639e-034 -1.0
outer loop
vertex -8.69333243660162 2.32937140592268 0.0
vertex -8.69333243660162 -2.32937140592269 0.0
vertex -9.0 -1.84450088330462e-015 0.0
endloop
endfacet
facet normal -2.5140217808602e-033 -2.74572267817639e-034 -1.0
outer loop
vertex -8.69333243660162 -2.32937140592269 0.0
vertex -8.69333243660162 2.32937140592268 0.0
vertex -8.0013354152465 4.0 0.0
endloop
endfacet
facet normal -2.5140217808602e-033 -2.74572267817639e-034 -1.0
outer loop
vertex -8.69333243660162 -2.32937140592269 0.0
vertex -8.0013354152465 4.0 0.0
vertex -7.79422863405995 -4.5 0.0
endloop
endfacet
facet normal -2.5140217808602e-033 -2.74572267817639e-034 -1.0
outer loop
vertex -24.2454813220625 18.385889527836 0.0
vertex -24.3 9.2 0.0
vertex -24.3 18.8 0.0
endloop
endfacet
facet normal -2.5140217808602e-033 -2.74572267817639e-034 -1.0
outer loop
vertex -24.3 9.2 0.0
vertex -24.2454813220625 18.385889527836 0.0
vertex -24.2454813220625 9.61411047216403 0.0
endloop
endfacet
facet normal -2.5140217808602e-033 -2.74572267817639e-034 -1.0
outer loop
vertex -24.2454813220625 9.61411047216403 0.0
vertex -24.2454813220625 18.385889527836 0.0
vertex -24.0856406460551 18.0 0.0
endloop
endfacet
facet normal -2.5140217808602e-033 -2.74572267817639e-034 -1.0
outer loop
vertex -24.2454813220625 9.61411047216403 0.0
vertex -24.0856406460551 18.0 0.0
vertex -24.0856406460551 10.0 0.0
endloop
endfacet
facet normal -2.5140217808602e-033 -2.74572267817639e-034 -1.0
outer loop
vertex -24.0856406460551 10.0 0.0
vertex -24.0856406460551 18.0 0.0
vertex -23.8313708498985 17.6686291501015 0.0
endloop
endfacet
facet normal -2.5140217808602e-033 -2.74572267817639e-034 -1.0
outer loop
vertex -24.0856406460551 10.0 0.0
vertex -23.8313708498985 17.6686291501015 0.0
vertex -23.8313708498985 10.3313708498985 0.0
endloop
endfacet
facet normal -2.5140217808602e-033 -2.74572267817639e-034 -1.0
outer loop
vertex -23.8313708498985 10.3313708498985 0.0
vertex -23.8313708498985 17.6686291501015 0.0
vertex -23.5 17.4143593539449 0.0
endloop
endfacet
facet normal -2.5140217808602e-033 -2.74572267817639e-034 -1.0
outer loop
vertex -23.8313708498985 10.3313708498985 0.0
vertex -23.5 17.4143593539449 0.0
vertex -23.5 10.5856406460551 0.0
endloop
endfacet
facet normal -2.5140217808602e-033 -2.74572267817639e-034 -1.0
outer loop
vertex -23.5 10.5856406460551 0.0
vertex -23.5 17.4143593539449 0.0
vertex -23.114110472164 17.2545186779375 0.0
endloop
endfacet
facet normal -2.5140217808602e-033 -2.74572267817639e-034 -1.0
outer loop
vertex -23.5 10.5856406460551 0.0
vertex -23.114110472164 17.2545186779375 0.0
vertex -23.114110472164 10.7454813220625 0.0
endloop
endfacet
facet normal -2.5140217808602e-033 -2.74572267817639e-034 -1.0
outer loop
vertex -23.114110472164 10.7454813220625 0.0
vertex -23.114110472164 17.2545186779375 0.0
vertex -22.7 17.2 0.0
endloop
endfacet
facet normal -2.5140217808602e-033 -2.74572267817639e-034 -1.0
outer loop
vertex -23.114110472164 10.7454813220625 0.0
vertex -22.7 17.2 0.0
vertex -22.7 10.8 0.0
endloop
endfacet
facet normal -2.5140217808602e-033 -2.74572267817639e-034 -1.0
outer loop
vertex -22.7 10.8 0.0
vertex -22.7 17.2 0.0
vertex -22.285889527836 17.2545186779375 0.0
endloop
endfacet
facet normal -2.5140217808602e-033 -2.74572267817639e-034 -1.0
outer loop
vertex -22.7 10.8 0.0
vertex -22.285889527836 17.2545186779375 0.0
vertex -22.285889527836 10.7454813220625 0.0
endloop
endfacet
facet normal -2.5140217808602e-033 -2.74572267817639e-034 -1.0
outer loop
vertex -22.285889527836 10.7454813220625 0.0
vertex -22.285889527836 17.2545186779375 0.0
vertex -21.9 17.4143593539449 0.0
endloop
endfacet
facet normal -2.5140217808602e-033 -2.74572267817639e-034 -1.0
outer loop
vertex -22.285889527836 10.7454813220625 0.0
vertex -21.9 17.4143593539449 0.0
vertex -21.9 10.5856406460551 0.0
endloop
endfacet
facet normal -2.5140217808602e-033 -2.74572267817639e-034 -1.0
outer loop
vertex -21.9 10.5856406460551 0.0
vertex -21.9 17.4143593539449 0.0
vertex -21.5686291501015 17.6686291501015 0.0
endloop
endfacet
facet normal -2.5140217808602e-033 -2.74572267817639e-034 -1.0
outer loop
vertex -21.9 10.5856406460551 0.0
vertex -21.5686291501015 17.6686291501015 0.0
vertex -21.5686291501015 10.3313708498985 0.0
endloop
endfacet
facet normal -2.5140217808602e-033 -2.74572267817639e-034 -1.0
outer loop
vertex -21.5686291501015 10.3313708498985 0.0
vertex -21.5686291501015 17.6686291501015 0.0
vertex -21.3143593539449 18.0 0.0
endloop
endfacet
facet normal -2.5140217808602e-033 -2.74572267817639e-034 -1.0
outer loop
vertex -21.5686291501015 10.3313708498985 0.0
vertex -21.3143593539449 18.0 0.0
vertex -21.3143593539449 10.0 0.0
endloop
endfacet
facet normal -2.5140217808602e-033 -2.74572267817639e-034 -1.0
outer loop
vertex -21.3143593539449 10.0 0.0
vertex -21.3143593539449 18.0 0.0
vertex -21.1545186779375 18.385889527836 0.0
endloop
endfacet
facet normal -2.5140217808602e-033 -2.74572267817639e-034 -1.0
outer loop
vertex -21.3143593539449 10.0 0.0
vertex -21.1545186779375 18.385889527836 0.0
vertex -21.1545186779375 9.61411047216403 0.0
endloop
endfacet
facet normal -2.5140217808602e-033 -2.74572267817639e-034 -1.0
outer loop
vertex -21.1545186779375 9.61411047216403 0.0
vertex -21.1545186779375 18.385889527836 0.0
vertex -21.1 18.8 0.0
endloop
endfacet
facet normal -2.5140217808602e-033 -2.74572267817639e-034 -1.0
outer loop
vertex -21.1545186779375 9.61411047216403 0.0
vertex -21.1 18.8 0.0
vertex -21.1 9.2 0.0
endloop
endfacet
facet normal -2.5140217808602e-033 -2.74572267817639e-034 -1.0
outer loop
vertex -25.3 4.0 0.0
vertex -23.114110472164 7.65451867793749 0.0
vertex -8.0013354152465 4.0 0.0
endloop
endfacet
facet normal -2.5140217808602e-033 -2.74572267817639e-034 -1.0
outer loop
vertex -23.114110472164 7.65451867793749 0.0
vertex -25.3 4.0 0.0
vertex -23.5 7.8143593539449 0.0
endloop
endfacet
facet normal -2.5140217808602e-033 -2.74572267817639e-034 -1.0
outer loop
vertex -23.5 7.8143593539449 0.0
vertex -25.3 4.0 0.0
vertex -23.8313708498985 8.06862915010152 0.0
endloop
endfacet
facet normal -2.5140217808602e-033 -2.74572267817639e-034 -1.0
outer loop
vertex -23.8313708498985 8.06862915010152 0.0
vertex -25.3 4.0 0.0
vertex -24.0856406460551 8.4 0.0
endloop
endfacet
facet normal -2.5140217808602e-033 -2.74572267817639e-034 -1.0
outer loop
vertex -24.0856406460551 8.4 0.0
vertex -25.3 4.0 0.0
vertex -24.2454813220625 8.78588952783596 0.0
endloop
endfacet
facet normal -2.5140217808602e-033 -2.74572267817639e-034 -1.0
outer loop
vertex -24.2454813220625 8.78588952783596 0.0
vertex -25.3 4.0 0.0
vertex -24.3 9.2 0.0
endloop
endfacet
facet normal -2.5140217808602e-033 -2.74572267817639e-034 -1.0
outer loop
vertex -24.3 9.2 0.0
vertex -25.3 4.0 0.0
vertex -24.3 18.8 0.0
endloop
endfacet
facet normal -2.5140217808602e-033 -2.74572267817639e-034 -1.0
outer loop
vertex -8.0013354152465 4.0 0.0
vertex -23.114110472164 7.65451867793749 0.0
vertex -22.7 7.6 0.0
endloop
endfacet
facet normal -2.5140217808602e-033 -2.74572267817639e-034 -1.0
outer loop
vertex -8.0013354152465 4.0 0.0
vertex -22.7 7.6 0.0
vertex -22.285889527836 7.65451867793749 0.0
endloop
endfacet
facet normal -2.5140217808602e-033 -2.74572267817639e-034 -1.0
outer loop
vertex -8.0013354152465 4.0 0.0
vertex -22.285889527836 7.65451867793749 0.0
vertex -21.9 7.8143593539449 0.0
endloop
endfacet
facet normal -2.5140217808602e-033 -2.74572267817639e-034 -1.0
outer loop
vertex -8.0013354152465 4.0 0.0
vertex -21.9 7.8143593539449 0.0
vertex -21.5686291501015 8.06862915010152 0.0
endloop
endfacet
facet normal -2.5140217808602e-033 -2.74572267817639e-034 -1.0
outer loop
vertex -8.0013354152465 4.0 0.0
vertex -21.5686291501015 8.06862915010152 0.0
vertex -21.3143593539449 8.4 0.0
endloop
endfacet
facet normal -2.5140217808602e-033 -2.74572267817639e-034 -1.0
outer loop
vertex -8.0013354152465 4.0 0.0
vertex -21.3143593539449 8.4 0.0
vertex -21.1545186779375 8.78588952783596 0.0
endloop
endfacet
facet normal -2.5140217808602e-033 -2.74572267817639e-034 -1.0
outer loop
vertex -8.0013354152465 4.0 0.0
vertex -21.1545186779375 8.78588952783596 0.0
vertex -21.1 9.2 0.0
endloop
endfacet
facet normal -2.5140217808602e-033 -2.74572267817639e-034 -1.0
outer loop
vertex -8.0013354152465 4.0 0.0
vertex -21.1 9.2 0.0
vertex -20.1 9.00000000000001 4.8156512300439e-031
endloop
endfacet
facet normal -2.5140217808602e-033 -2.74572267817639e-034 -1.0
outer loop
vertex -20.1 9.00000000000001 4.8156512300439e-031
vertex -21.1 9.2 0.0
vertex -20.1 24.0 0.0
endloop
endfacet
facet normal -2.5140217808602e-033 -2.74572267817639e-034 -1.0
outer loop
vertex -8.0013354152465 4.0 0.0
vertex -20.1 9.00000000000001 4.8156512300439e-031
vertex 12.0 9.0 0.0
endloop
endfacet
facet normal -2.5140217808602e-033 -2.74572267817639e-034 -1.0
outer loop
vertex -8.0013354152465 4.0 0.0
vertex 12.0 9.0 0.0
vertex -1.03527618041008 3.86370330515627 0.0
endloop
endfacet
facet normal -2.5140217808602e-033 -2.74572267817639e-034 -1.0
outer loop
vertex -8.0013354152465 4.0 0.0
vertex -1.03527618041008 3.86370330515627 0.0
vertex -2.0 3.46410161513775 0.0
endloop
endfacet
facet normal -2.5140217808602e-033 -2.74572267817639e-034 -1.0
outer loop
vertex -8.0013354152465 4.0 0.0
vertex -2.0 3.46410161513775 0.0
vertex -2.82842712474619 2.82842712474619 0.0
endloop
endfacet
facet normal -2.5140217808602e-033 -2.74572267817639e-034 -1.0
outer loop
vertex -8.0013354152465 4.0 0.0
vertex -2.82842712474619 2.82842712474619 0.0
vertex -3.46410161513775 2.0 0.0
endloop
endfacet
facet normal -2.5140217808602e-033 -2.74572267817639e-034 -1.0
outer loop
vertex -8.0013354152465 4.0 0.0
vertex -3.46410161513775 2.0 0.0
vertex -7.79422863405995 -4.5 0.0
endloop
endfacet
facet normal -2.5140217808602e-033 -2.74572267817639e-034 -1.0
outer loop
vertex -7.79422863405995 -4.5 0.0
vertex -3.46410161513775 2.0 0.0
vertex -3.86370330515627 1.03527618041008 0.0
endloop
endfacet
facet normal -2.5140217808602e-033 -2.74572267817639e-034 -1.0
outer loop
vertex -7.79422863405995 -4.5 0.0
vertex -3.86370330515627 1.03527618041008 0.0
vertex -6.36396103067893 -6.36396103067893 0.0
endloop
endfacet
facet normal -2.5140217808602e-033 -2.74572267817639e-034 -1.0
outer loop
vertex -6.36396103067893 -6.36396103067893 0.0
vertex -3.86370330515627 1.03527618041008 0.0
vertex -4.0 4.89858719658941e-016 0.0
endloop
endfacet
facet normal -2.5140217808602e-033 -2.74572267817639e-034 -1.0
outer loop
vertex -6.36396103067893 -6.36396103067893 0.0
vertex -4.0 4.89858719658941e-016 0.0
vertex -4.5 -7.79422863405995 0.0
endloop
endfacet
facet normal -2.5140217808602e-033 -2.74572267817639e-034 -1.0
outer loop
vertex -1.03527618041008 3.86370330515627 0.0
vertex 12.0 9.0 0.0
vertex 2.44929359829471e-016 4.0 0.0
endloop
endfacet
facet normal -2.5140217808602e-033 -2.74572267817639e-034 -1.0
outer loop
vertex 2.44929359829471e-016 4.0 0.0
vertex 12.0 9.0 0.0
vertex 12.0 4.0 0.0
endloop
endfacet
facet normal -2.5140217808602e-033 -2.74572267817639e-034 -1.0
outer loop
vertex -4.5 -7.79422863405995 0.0
vertex -3.86370330515627 -1.03527618041008 0.0
vertex -2.32937140592269 -8.69333243660162 0.0
endloop
endfacet
facet normal -2.5140217808602e-033 -2.74572267817639e-034 -1.0
outer loop
vertex -3.86370330515627 -1.03527618041008 0.0
vertex -4.5 -7.79422863405995 0.0
vertex -4.0 4.89858719658941e-016 0.0
endloop
endfacet
facet normal -2.5140217808602e-033 -2.74572267817639e-034 -1.0
outer loop
vertex -2.32937140592269 -8.69333243660162 0.0
vertex -3.86370330515627 -1.03527618041008 0.0
vertex -3.46410161513775 -2.0 0.0
endloop
endfacet
facet normal -2.5140217808602e-033 -2.74572267817639e-034 -1.0
outer loop
vertex -2.32937140592269 -8.69333243660162 0.0
vertex -3.46410161513775 -2.0 0.0
vertex -2.82842712474619 -2.82842712474619 0.0
endloop
endfacet
facet normal -2.5140217808602e-033 -2.74572267817639e-034 -1.0
outer loop
vertex -2.32937140592269 -8.69333243660162 0.0
vertex -2.82842712474619 -2.82842712474619 0.0
vertex -2.0 -3.46410161513775 0.0
endloop
endfacet
facet normal -2.5140217808602e-033 -2.74572267817639e-034 -1.0
outer loop
vertex -2.32937140592269 -8.69333243660162 0.0
vertex -2.0 -3.46410161513775 0.0
vertex 0.0 -9.0 0.0
endloop
endfacet
facet normal -2.5140217808602e-033 -2.74572267817639e-034 -1.0
outer loop
vertex 0.0 -9.0 0.0
vertex -2.0 -3.46410161513775 0.0
vertex -1.03527618041009 -3.86370330515627 0.0
endloop
endfacet
facet normal -2.5140217808602e-033 -2.74572267817639e-034 -1.0
outer loop
vertex 0.0 -9.0 0.0
vertex -1.03527618041009 -3.86370330515627 0.0
vertex -7.34788079488412e-016 -4.0 0.0
endloop
endfacet
facet normal -2.5140217808602e-033 -2.74572267817639e-034 -1.0
outer loop
vertex 0.0 -9.0 0.0
vertex -7.34788079488412e-016 -4.0 0.0
vertex 12.0 -4.0 0.0
endloop
endfacet
facet normal -2.5140217808602e-033 -2.74572267817639e-034 -1.0
outer loop
vertex 0.0 -9.0 0.0
vertex 12.0 -4.0 0.0
vertex 12.0 -9.0 0.0
endloop
endfacet
facet normal -0.0 -0.0 1.0
outer loop
vertex -8.69333243660162 -2.32937140592269 12.0
vertex -8.69333243660162 2.32937140592268 12.0
vertex -9.0 -1.84450088330462e-015 12.0
endloop
endfacet
facet normal -0.0 -0.0 1.0
outer loop
vertex -8.69333243660162 2.32937140592268 12.0
vertex -8.69333243660162 -2.32937140592269 12.0
vertex -8.0013354152465 4.0 12.0
endloop
endfacet
facet normal -0.0 -0.0 1.0
outer loop
vertex -8.0013354152465 4.0 12.0
vertex -8.69333243660162 -2.32937140592269 12.0
vertex -7.79422863405995 -4.5 12.0
endloop
endfacet
facet normal -0.0 -0.0 1.0
outer loop
vertex -4.5 -7.79422863405995 12.0
vertex -3.86370330515627 -1.03527618041008 12.0
vertex -4.0 4.89858719658941e-016 12.0
endloop
endfacet
facet normal -0.0 -0.0 1.0
outer loop
vertex -3.86370330515627 -1.03527618041008 12.0
vertex -4.5 -7.79422863405995 12.0
vertex -2.32937140592269 -8.69333243660162 12.0
endloop
endfacet
facet normal -0.0 -0.0 1.0
outer loop
vertex -3.86370330515627 -1.03527618041008 12.0
vertex -2.32937140592269 -8.69333243660162 12.0
vertex -3.46410161513775 -2.0 12.0
endloop
endfacet
facet normal -0.0 -0.0 1.0
outer loop
vertex -3.46410161513775 -2.0 12.0
vertex -2.32937140592269 -8.69333243660162 12.0
vertex -2.82842712474619 -2.82842712474619 12.0
endloop
endfacet
facet normal -0.0 -0.0 1.0
outer loop
vertex -2.82842712474619 -2.82842712474619 12.0
vertex -2.32937140592269 -8.69333243660162 12.0
vertex -2.0 -3.46410161513775 12.0
endloop
endfacet
facet normal -0.0 -0.0 1.0
outer loop
vertex -2.0 -3.46410161513775 12.0
vertex -2.32937140592269 -8.69333243660162 12.0
vertex 0.0 -9.0 12.0
endloop
endfacet
facet normal -0.0 -0.0 1.0
outer loop
vertex -2.0 -3.46410161513775 12.0
vertex 0.0 -9.0 12.0
vertex -1.03527618041009 -3.86370330515627 12.0
endloop
endfacet
facet normal -0.0 -0.0 1.0
outer loop
vertex -1.03527618041009 -3.86370330515627 12.0
vertex 0.0 -9.0 12.0
vertex -7.34788079488412e-016 -4.0 12.0
endloop
endfacet
facet normal -0.0 -0.0 1.0
outer loop
vertex -7.34788079488412e-016 -4.0 12.0
vertex 0.0 -9.0 12.0
vertex 12.0 -4.0 12.0
endloop
endfacet
facet normal -0.0 -0.0 1.0
outer loop
vertex 12.0 -4.0 12.0
vertex 0.0 -9.0 12.0
vertex 12.0 -9.0 12.0
endloop
endfacet
facet normal -0.0 -0.0 1.0
outer loop
vertex -29.1 4.0 12.0
vertex -24.2454813220625 8.78588952783596 12.0
vertex -29.1 24.0 12.0
endloop
endfacet
facet normal -0.0 -0.0 1.0
outer loop
vertex -24.2454813220625 8.78588952783596 12.0
vertex -29.1 4.0 12.0
vertex -24.0856406460551 8.4 12.0
endloop
endfacet
facet normal -0.0 -0.0 1.0
outer loop
vertex -24.0856406460551 8.4 12.0
vertex -29.1 4.0 12.0
vertex -23.8313708498985 8.06862915010152 12.0
endloop
endfacet
facet normal -0.0 -0.0 1.0
outer loop
vertex -23.8313708498985 8.06862915010152 12.0
vertex -29.1 4.0 12.0
vertex -23.5 7.8143593539449 12.0
endloop
endfacet
facet normal -0.0 -0.0 1.0
outer loop
vertex -23.5 7.8143593539449 12.0
vertex -29.1 4.0 12.0
vertex -23.114110472164 7.65451867793749 12.0
endloop
endfacet
facet normal -0.0 -0.0 1.0
outer loop
vertex -23.114110472164 7.65451867793749 12.0
vertex -29.1 4.0 12.0
vertex -8.0013354152465 4.0 12.0
endloop
endfacet
facet normal -0.0 -0.0 1.0
outer loop
vertex -29.1 24.0 12.0
vertex -24.2454813220625 8.78588952783596 12.0
vertex -24.3 9.2 12.0
endloop
endfacet
facet normal -0.0 -0.0 1.0
outer loop
vertex -23.114110472164 7.65451867793749 12.0
vertex -8.0013354152465 4.0 12.0
vertex -22.7 7.6 12.0
endloop
endfacet
facet normal -0.0 -0.0 1.0
outer loop
vertex -22.7 7.6 12.0
vertex -8.0013354152465 4.0 12.0
vertex -22.285889527836 7.65451867793749 12.0
endloop
endfacet
facet normal -0.0 -0.0 1.0
outer loop
vertex -22.285889527836 7.65451867793749 12.0
vertex -8.0013354152465 4.0 12.0
vertex -21.9 7.8143593539449 12.0
endloop
endfacet
facet normal -0.0 -0.0 1.0
outer loop
vertex -21.9 7.8143593539449 12.0
vertex -8.0013354152465 4.0 12.0
vertex -21.5686291501015 8.06862915010152 12.0
endloop
endfacet
facet normal -0.0 -0.0 1.0
outer loop
vertex -21.5686291501015 8.06862915010152 12.0
vertex -8.0013354152465 4.0 12.0
vertex -21.3143593539449 8.4 12.0
endloop
endfacet
facet normal -0.0 -0.0 1.0
outer loop
vertex -21.3143593539449 8.4 12.0
vertex -8.0013354152465 4.0 12.0
vertex -21.1545186779375 8.78588952783596 12.0
endloop
endfacet
facet normal -0.0 -0.0 1.0
outer loop
vertex -21.1545186779375 8.78588952783596 12.0
vertex -8.0013354152465 4.0 12.0
vertex -21.1 9.2 12.0
endloop
endfacet
facet normal -0.0 -0.0 1.0
outer loop
vertex -21.1 9.2 12.0
vertex -8.0013354152465 4.0 12.0
vertex -15.0 9.0 12.0
endloop
endfacet
facet normal -0.0 -0.0 1.0
outer loop
vertex -21.1 9.2 12.0
vertex -15.0 9.0 12.0
vertex -21.1 18.8 12.0
endloop
endfacet
facet normal -0.0 -0.0 1.0
outer loop
vertex -21.1 18.8 12.0
vertex -15.0 9.0 12.0
vertex -15.0 24.0 12.0
endloop
endfacet
facet normal -0.0 -0.0 1.0
outer loop
vertex -15.0 9.0 12.0
vertex -8.0013354152465 4.0 12.0
vertex 12.0 9.0 12.0
endloop
endfacet
facet normal -0.0 -0.0 1.0
outer loop
vertex 12.0 9.0 12.0
vertex -8.0013354152465 4.0 12.0
vertex -1.03527618041008 3.86370330515627 12.0
endloop
endfacet
facet normal -0.0 -0.0 1.0
outer loop
vertex -1.03527618041008 3.86370330515627 12.0
vertex -8.0013354152465 4.0 12.0
vertex -2.0 3.46410161513775 12.0
endloop
endfacet
facet normal -0.0 -0.0 1.0
outer loop
vertex -2.0 3.46410161513775 12.0
vertex -8.0013354152465 4.0 12.0
vertex -2.82842712474619 2.82842712474619 12.0
endloop
endfacet
facet normal -0.0 -0.0 1.0
outer loop
vertex -2.82842712474619 2.82842712474619 12.0
vertex -8.0013354152465 4.0 12.0
vertex -3.46410161513775 2.0 12.0
endloop
endfacet
facet normal -0.0 -0.0 1.0
outer loop
vertex -3.46410161513775 2.0 12.0
vertex -8.0013354152465 4.0 12.0
vertex -7.79422863405995 -4.5 12.0
endloop
endfacet
facet normal -0.0 -0.0 1.0
outer loop
vertex -3.46410161513775 2.0 12.0
vertex -7.79422863405995 -4.5 12.0
vertex -3.86370330515627 1.03527618041008 12.0
endloop
endfacet
facet normal -0.0 -0.0 1.0
outer loop
vertex -3.86370330515627 1.03527618041008 12.0
vertex -7.79422863405995 -4.5 12.0
vertex -6.36396103067893 -6.36396103067893 12.0
endloop
endfacet
facet normal -0.0 -0.0 1.0
outer loop
vertex -3.86370330515627 1.03527618041008 12.0
vertex -6.36396103067893 -6.36396103067893 12.0
vertex -4.0 4.89858719658941e-016 12.0
endloop
endfacet
facet normal -0.0 -0.0 1.0
outer loop
vertex -4.0 4.89858719658941e-016 12.0
vertex -6.36396103067893 -6.36396103067893 12.0
vertex -4.5 -7.79422863405995 12.0
endloop
endfacet
facet normal -0.0 -0.0 1.0
outer loop
vertex 12.0 9.0 12.0
vertex -1.03527618041008 3.86370330515627 12.0
vertex 2.44929359829471e-016 4.0 12.0
endloop
endfacet
facet normal -0.0 -0.0 1.0
outer loop
vertex 12.0 9.0 12.0
vertex 2.44929359829471e-016 4.0 12.0
vertex 12.0 4.0 12.0
endloop
endfacet
facet normal -0.0 -0.0 1.0
outer loop
vertex -29.1 24.0 12.0
vertex -23.5 20.1856406460551 12.0
vertex -15.0 24.0 12.0
endloop
endfacet
facet normal -0.0 -0.0 1.0
outer loop
vertex -23.5 20.1856406460551 12.0
vertex -29.1 24.0 12.0
vertex -23.8313708498985 19.9313708498985 12.0
endloop
endfacet
facet normal -0.0 -0.0 1.0
outer loop
vertex -23.8313708498985 19.9313708498985 12.0
vertex -29.1 24.0 12.0
vertex -24.0856406460551 19.6 12.0
endloop
endfacet
facet normal -0.0 -0.0 1.0
outer loop
vertex -24.0856406460551 19.6 12.0
vertex -29.1 24.0 12.0
vertex -24.2454813220625 19.214110472164 12.0
endloop
endfacet
facet normal -0.0 -0.0 1.0
outer loop
vertex -24.2454813220625 19.214110472164 12.0
vertex -29.1 24.0 12.0
vertex -24.3 18.8 12.0
endloop
endfacet
facet normal -0.0 -0.0 1.0
outer loop
vertex -24.3 18.8 12.0
vertex -29.1 24.0 12.0
vertex -24.3 9.2 12.0
endloop
endfacet
facet normal -0.0 -0.0 1.0
outer loop
vertex -15.0 24.0 12.0
vertex -23.5 20.1856406460551 12.0
vertex -23.114110472164 20.3454813220625 12.0
endloop
endfacet
facet normal -0.0 -0.0 1.0
outer loop
vertex -15.0 24.0 12.0
vertex -23.114110472164 20.3454813220625 12.0
vertex -22.7 20.4 12.0
endloop
endfacet
facet normal -0.0 -0.0 1.0
outer loop
vertex -15.0 24.0 12.0
vertex -22.7 20.4 12.0
vertex -22.285889527836 20.3454813220625 12.0
endloop
endfacet
facet normal -0.0 -0.0 1.0
outer loop
vertex -15.0 24.0 12.0
vertex -22.285889527836 20.3454813220625 12.0
vertex -21.9 20.1856406460551 12.0
endloop
endfacet
facet normal -0.0 -0.0 1.0
outer loop
vertex -15.0 24.0 12.0
vertex -21.9 20.1856406460551 12.0
vertex -21.5686291501015 19.9313708498985 12.0
endloop
endfacet
facet normal -0.0 -0.0 1.0
outer loop
vertex -15.0 24.0 12.0
vertex -21.5686291501015 19.9313708498985 12.0
vertex -21.3143593539449 19.6 12.0
endloop
endfacet
facet normal -0.0 -0.0 1.0
outer loop
vertex -15.0 24.0 12.0
vertex -21.3143593539449 19.6 12.0
vertex -21.1545186779375 19.214110472164 12.0
endloop
endfacet
facet normal -0.0 -0.0 1.0
outer loop
vertex -15.0 24.0 12.0
vertex -21.1545186779375 19.214110472164 12.0
vertex -21.1 18.8 12.0
endloop
endfacet
facet normal -0.0 -0.0 1.0
outer loop
vertex -24.2454813220625 9.61411047216403 12.0
vertex -24.3 18.8 12.0
vertex -24.3 9.2 12.0
endloop
endfacet
facet normal -0.0 -0.0 1.0
outer loop
vertex -24.3 18.8 12.0
vertex -24.2454813220625 9.61411047216403 12.0
vertex -24.2454813220625 18.385889527836 12.0
endloop
endfacet
facet normal -0.0 -0.0 1.0
outer loop
vertex -24.2454813220625 18.385889527836 12.0
vertex -24.2454813220625 9.61411047216403 12.0
vertex -24.0856406460551 18.0 12.0
endloop
endfacet
facet normal -0.0 -0.0 1.0
outer loop
vertex -24.0856406460551 18.0 12.0
vertex -24.2454813220625 9.61411047216403 12.0
vertex -24.0856406460551 10.0 12.0
endloop
endfacet
facet normal -0.0 -0.0 1.0
outer loop
vertex -24.0856406460551 18.0 12.0
vertex -24.0856406460551 10.0 12.0
vertex -23.8313708498985 10.3313708498985 12.0
endloop
endfacet
facet normal -0.0 -0.0 1.0
outer loop
vertex -24.0856406460551 18.0 12.0
vertex -23.8313708498985 10.3313708498985 12.0
vertex -23.8313708498985 17.6686291501015 12.0
endloop
endfacet
facet normal -0.0 -0.0 1.0
outer loop
vertex -23.8313708498985 17.6686291501015 12.0
vertex -23.8313708498985 10.3313708498985 12.0
vertex -23.5 10.5856406460551 12.0
endloop
endfacet
facet normal -0.0 -0.0 1.0
outer loop
vertex -23.8313708498985 17.6686291501015 12.0
vertex -23.5 10.5856406460551 12.0
vertex -23.5 17.4143593539449 12.0
endloop
endfacet
facet normal -0.0 -0.0 1.0
outer loop
vertex -23.5 17.4143593539449 12.0
vertex -23.5 10.5856406460551 12.0
vertex -23.114110472164 17.2545186779375 12.0
endloop
endfacet
facet normal -0.0 -0.0 1.0
outer loop
vertex -23.114110472164 17.2545186779375 12.0
vertex -23.5 10.5856406460551 12.0
vertex -23.114110472164 10.7454813220625 12.0
endloop
endfacet
facet normal -0.0 -0.0 1.0
outer loop
vertex -23.114110472164 17.2545186779375 12.0
vertex -23.114110472164 10.7454813220625 12.0
vertex -22.7 17.2 12.0
endloop
endfacet
facet normal -0.0 -0.0 1.0
outer loop
vertex -22.7 17.2 12.0
vertex -23.114110472164 10.7454813220625 12.0
vertex -22.7 10.8 12.0
endloop
endfacet
facet normal -0.0 -0.0 1.0
outer loop
vertex -22.7 17.2 12.0
vertex -22.7 10.8 12.0
vertex -22.285889527836 10.7454813220625 12.0
endloop
endfacet
facet normal -0.0 -0.0 1.0
outer loop
vertex -22.7 17.2 12.0
vertex -22.285889527836 10.7454813220625 12.0
vertex -22.285889527836 17.2545186779375 12.0
endloop
endfacet
facet normal -0.0 -0.0 1.0
outer loop
vertex -22.285889527836 17.2545186779375 12.0
vertex -22.285889527836 10.7454813220625 12.0
vertex -21.9 17.4143593539449 12.0
endloop
endfacet
facet normal -0.0 -0.0 1.0
outer loop
vertex -21.9 17.4143593539449 12.0
vertex -22.285889527836 10.7454813220625 12.0
vertex -21.9 10.5856406460551 12.0
endloop
endfacet
facet normal -0.0 -0.0 1.0
outer loop
vertex -21.9 17.4143593539449 12.0
vertex -21.9 10.5856406460551 12.0
vertex -21.5686291501015 17.6686291501015 12.0
endloop
endfacet
facet normal -0.0 -0.0 1.0
outer loop
vertex -21.5686291501015 17.6686291501015 12.0
vertex -21.9 10.5856406460551 12.0
vertex -21.5686291501015 10.3313708498985 12.0
endloop
endfacet
facet normal -0.0 -0.0 1.0
outer loop
vertex -21.5686291501015 17.6686291501015 12.0
vertex -21.5686291501015 10.3313708498985 12.0
vertex -21.3143593539449 10.0 12.0
endloop
endfacet
facet normal -0.0 -0.0 1.0
outer loop
vertex -21.5686291501015 17.6686291501015 12.0
vertex -21.3143593539449 10.0 12.0
vertex -21.3143593539449 18.0 12.0
endloop
endfacet
facet normal -0.0 -0.0 1.0
outer loop
vertex -21.3143593539449 18.0 12.0
vertex -21.3143593539449 10.0 12.0
vertex -21.1545186779375 9.61411047216403 12.0
endloop
endfacet
facet normal -0.0 -0.0 1.0
outer loop
vertex -21.3143593539449 18.0 12.0
vertex -21.1545186779375 9.61411047216403 12.0
vertex -21.1545186779375 18.385889527836 12.0
endloop
endfacet
facet normal -0.0 -0.0 1.0
outer loop
vertex -21.1545186779375 18.385889527836 12.0
vertex -21.1545186779375 9.61411047216403 12.0
vertex -21.1 9.2 12.0
endloop
endfacet
facet normal -0.0 -0.0 1.0
outer loop
vertex -21.1545186779375 18.385889527836 12.0
vertex -21.1 9.2 12.0
vertex -21.1 18.8 12.0
endloop
endfacet
facet normal -1.75127421655759e-016 1.0 -7.20083565109836e-017
outer loop
vertex -29.1 24.0 12.0
vertex -20.1 24.0 0.0
vertex -25.3 24.0 0.0
endloop
endfacet
facet normal -1.75127421655759e-016 1.0 -7.20083565109836e-017
outer loop
vertex -20.1 24.0 0.0
vertex -29.1 24.0 12.0
vertex -15.0 24.0 12.0
endloop
endfacet
facet normal 1.0 0.0 0.0
outer loop
vertex 12.0 9.0 0.0
vertex 12.0 4.0 12.0
vertex 12.0 4.0 0.0
endloop
endfacet
facet normal 1.0 0.0 0.0
outer loop
vertex 12.0 4.0 12.0
vertex 12.0 9.0 0.0
vertex 12.0 9.0 12.0
endloop
endfacet
facet normal -0.0 -1.0 -0.0
outer loop
vertex 12.0 4.0 12.0
vertex 2.44929359829471e-016 4.0 0.0
vertex 12.0 4.0 0.0
endloop
endfacet
facet normal 0.0654031292301432 -0.997858923238603 0.0
outer loop
vertex 2.44929359829471e-016 4.0 0.0
vertex 12.0 4.0 12.0
vertex 2.44929359829471e-016 4.0 12.0
endloop
endfacet
facet normal 0.0654031292301432 -0.997858923238603 0.0
outer loop
vertex 2.44929359829471e-016 4.0 12.0
vertex -1.03527618041008 3.86370330515627 0.0
vertex 2.44929359829471e-016 4.0 0.0
endloop
endfacet
facet normal 0.258819045102521 -0.965925826289068 0.0
outer loop
vertex -1.03527618041008 3.86370330515627 0.0
vertex 2.44929359829471e-016 4.0 12.0
vertex -1.03527618041008 3.86370330515627 12.0
endloop
endfacet
facet normal 0.258819045102521 -0.965925826289068 0.0
outer loop
vertex -1.03527618041008 3.86370330515627 12.0
vertex -2.0 3.46410161513775 0.0
vertex -1.03527618041008 3.86370330515627 0.0
endloop
endfacet
facet normal 0.5 -0.866025403784439 0.0
outer loop
vertex -2.0 3.46410161513775 0.0
vertex -1.03527618041008 3.86370330515627 12.0
vertex -2.0 3.46410161513775 12.0
endloop
endfacet
facet normal 0.5 -0.866025403784439 0.0
outer loop
vertex -2.0 3.46410161513775 12.0
vertex -2.82842712474619 2.82842712474619 0.0
vertex -2.0 3.46410161513775 0.0
endloop
endfacet
facet normal 0.707106781186547 -0.707106781186548 0.0
outer loop
vertex -2.82842712474619 2.82842712474619 0.0
vertex -2.0 3.46410161513775 12.0
vertex -2.82842712474619 2.82842712474619 12.0
endloop
endfacet
facet normal 0.707106781186547 -0.707106781186548 0.0
outer loop
vertex -2.82842712474619 2.82842712474619 0.0
vertex -3.46410161513775 2.0 12.0
vertex -3.46410161513775 2.0 0.0
endloop
endfacet
facet normal 0.866025403784439 -0.5 0.0
outer loop
vertex -3.46410161513775 2.0 12.0
vertex -2.82842712474619 2.82842712474619 0.0
vertex -2.82842712474619 2.82842712474619 12.0
endloop
endfacet
facet normal 0.866025403784439 -0.5 0.0
outer loop
vertex -3.46410161513775 2.0 0.0
vertex -3.86370330515627 1.03527618041008 12.0
vertex -3.86370330515627 1.03527618041008 0.0
endloop
endfacet
facet normal 0.965925826289068 -0.258819045102521 0.0
outer loop
vertex -3.86370330515627 1.03527618041008 12.0
vertex -3.46410161513775 2.0 0.0
vertex -3.46410161513775 2.0 12.0
endloop
endfacet
facet normal 0.965925826289068 -0.258819045102521 0.0
outer loop
vertex -3.86370330515627 1.03527618041008 0.0
vertex -4.0 4.89858719658941e-016 12.0
vertex -4.0 4.89858719658941e-016 0.0
endloop
endfacet
facet normal 1.0 -2.22777747391173e-016 0.0
outer loop
vertex -4.0 4.89858719658941e-016 12.0
vertex -3.86370330515627 1.03527618041008 0.0
vertex -3.86370330515627 1.03527618041008 12.0
endloop
endfacet
facet normal 1.0 -2.22777747391173e-016 0.0
outer loop
vertex -4.0 4.89858719658941e-016 0.0
vertex -3.86370330515627 -1.03527618041008 12.0
vertex -3.86370330515627 -1.03527618041008 0.0
endloop
endfacet
facet normal 0.965925826289068 0.25881904510252 0.0
outer loop
vertex -3.86370330515627 -1.03527618041008 12.0
vertex -4.0 4.89858719658941e-016 0.0
vertex -4.0 4.89858719658941e-016 12.0
endloop
endfacet
facet normal 0.965925826289068 0.25881904510252 0.0
outer loop
vertex -3.86370330515627 -1.03527618041008 0.0
vertex -3.46410161513775 -2.0 12.0
vertex -3.46410161513775 -2.0 0.0
endloop
endfacet
facet normal 0.866025403784439 0.5 0.0
outer loop
vertex -3.46410161513775 -2.0 12.0
vertex -3.86370330515627 -1.03527618041008 0.0
vertex -3.86370330515627 -1.03527618041008 12.0
endloop
endfacet
facet normal 0.866025403784439 0.5 0.0
outer loop
vertex -3.46410161513775 -2.0 0.0
vertex -2.82842712474619 -2.82842712474619 12.0
vertex -2.82842712474619 -2.82842712474619 0.0
endloop
endfacet
facet normal 0.707106781186548 0.707106781186547 0.0
outer loop
vertex -2.82842712474619 -2.82842712474619 12.0
vertex -3.46410161513775 -2.0 0.0
vertex -3.46410161513775 -2.0 12.0
endloop
endfacet
facet normal 0.707106781186548 0.707106781186547 0.0
outer loop
vertex -2.82842712474619 -2.82842712474619 12.0
vertex -2.0 -3.46410161513775 0.0
vertex -2.82842712474619 -2.82842712474619 0.0
endloop
endfacet
facet normal 0.5 0.866025403784438 0.0
outer loop
vertex -2.0 -3.46410161513775 0.0
vertex -2.82842712474619 -2.82842712474619 12.0
vertex -2.0 -3.46410161513775 12.0
endloop
endfacet
facet normal 0.5 0.866025403784438 0.0
outer loop
vertex -2.0 -3.46410161513775 12.0
vertex -1.03527618041009 -3.86370330515627 0.0
vertex -2.0 -3.46410161513775 0.0
endloop
endfacet
facet normal 0.258819045102521 0.965925826289068 0.0
outer loop
vertex -1.03527618041009 -3.86370330515627 0.0
vertex -2.0 -3.46410161513775 12.0
vertex -1.03527618041009 -3.86370330515627 12.0
endloop
endfacet
facet normal 0.258819045102521 0.965925826289068 0.0
outer loop
vertex -1.03527618041009 -3.86370330515627 12.0
vertex -7.34788079488412e-016 -4.0 0.0
vertex -1.03527618041009 -3.86370330515627 0.0
endloop
endfacet
facet normal 0.0654031292301433 0.997858923238603 0.0
outer loop
vertex -7.34788079488412e-016 -4.0 0.0
vertex -1.03527618041009 -3.86370330515627 12.0
vertex -7.34788079488412e-016 -4.0 12.0
endloop
endfacet
facet normal 0.0654031292301433 0.997858923238603 0.0
outer loop
vertex -7.34788079488412e-016 -4.0 12.0
vertex 12.0 -4.0 0.0
vertex -7.34788079488412e-016 -4.0 0.0
endloop
endfacet
facet normal -0.0 1.0 0.0
outer loop
vertex 12.0 -4.0 0.0
vertex -7.34788079488412e-016 -4.0 12.0
vertex 12.0 -4.0 12.0
endloop
endfacet
facet normal 1.0 0.0 0.0
outer loop
vertex 12.0 -4.0 0.0
vertex 12.0 -9.0 12.0
vertex 12.0 -9.0 0.0
endloop
endfacet
facet normal 1.0 0.0 0.0
outer loop
vertex 12.0 -9.0 12.0
vertex 12.0 -4.0 0.0
vertex 12.0 -4.0 12.0
endloop
endfacet
facet normal -0.0 -1.0 -0.0
outer loop
vertex 12.0 -9.0 12.0
vertex 0.0 -9.0 0.0
vertex 12.0 -9.0 0.0
endloop
endfacet
facet normal -0.0654031292301429 -0.997858923238604 0.0
outer loop
vertex 0.0 -9.0 0.0
vertex 12.0 -9.0 12.0
vertex 0.0 -9.0 12.0
endloop
endfacet
facet normal -0.0654031292301429 -0.997858923238604 0.0
outer loop
vertex 0.0 -9.0 12.0
vertex -2.32937140592269 -8.69333243660162 0.0
vertex 0.0 -9.0 0.0
endloop
endfacet
facet normal -0.258819045102521 -0.965925826289068 0.0
outer loop
vertex -2.32937140592269 -8.69333243660162 0.0
vertex 0.0 -9.0 12.0
vertex -2.32937140592269 -8.69333243660162 12.0
endloop
endfacet
facet normal -0.258819045102521 -0.965925826289068 0.0
outer loop
vertex -2.32937140592269 -8.69333243660162 12.0
vertex -4.5 -7.79422863405995 0.0
vertex -2.32937140592269 -8.69333243660162 0.0
endloop
endfacet
facet normal -0.5 -0.866025403784439 0.0
outer loop
vertex -4.5 -7.79422863405995 0.0
vertex -2.32937140592269 -8.69333243660162 12.0
vertex -4.5 -7.79422863405995 12.0
endloop
endfacet
facet normal -0.5 -0.866025403784439 0.0
outer loop
vertex -4.5 -7.79422863405995 12.0
vertex -6.36396103067893 -6.36396103067893 0.0
vertex -4.5 -7.79422863405995 0.0
endloop
endfacet
facet normal -0.707106781186547 -0.707106781186548 0.0
outer loop
vertex -6.36396103067893 -6.36396103067893 0.0
vertex -4.5 -7.79422863405995 12.0
vertex -6.36396103067893 -6.36396103067893 12.0
endloop
endfacet
facet normal -0.866025403784439 -0.5 0.0
outer loop
vertex -7.79422863405995 -4.5 12.0
vertex -6.36396103067893 -6.36396103067893 0.0
vertex -6.36396103067893 -6.36396103067893 12.0
endloop
endfacet
facet normal -0.707106781186547 -0.707106781186548 0.0
outer loop
vertex -6.36396103067893 -6.36396103067893 0.0
vertex -7.79422863405995 -4.5 12.0
vertex -7.79422863405995 -4.5 0.0
endloop
endfacet
facet normal -0.965925826289068 -0.258819045102521 0.0
outer loop
vertex -8.69333243660162 -2.32937140592269 12.0
vertex -7.79422863405995 -4.5 0.0
vertex -7.79422863405995 -4.5 12.0
endloop
endfacet
facet normal -0.866025403784439 -0.5 0.0
outer loop
vertex -7.79422863405995 -4.5 0.0
vertex -8.69333243660162 -2.32937140592269 12.0
vertex -8.69333243660162 -2.32937140592269 0.0
endloop
endfacet
facet normal -1.0 -3.02977736451995e-016 0.0
outer loop
vertex -9.0 -1.84450088330462e-015 12.0
vertex -8.69333243660162 -2.32937140592269 0.0
vertex -8.69333243660162 -2.32937140592269 12.0
endloop
endfacet
facet normal -0.965925826289068 -0.258819045102521 0.0
outer loop
vertex -8.69333243660162 -2.32937140592269 0.0
vertex -9.0 -1.84450088330462e-015 12.0
vertex -9.0 -1.84450088330462e-015 0.0
endloop
endfacet
facet normal -0.965925826289068 0.258819045102521 0.0
outer loop
vertex -8.69333243660162 2.32937140592268 12.0
vertex -9.0 -1.84450088330462e-015 0.0
vertex -9.0 -1.84450088330462e-015 12.0
endloop
endfacet
facet normal -1.0 -3.02977736451995e-016 0.0
outer loop
vertex -9.0 -1.84450088330462e-015 0.0
vertex -8.69333243660162 2.32937140592268 12.0
vertex -8.69333243660162 2.32937140592268 0.0
endloop
endfacet
facet normal -0.923879532511287 0.38268343236509 0.0
outer loop
vertex -8.0013354152465 4.0 12.0
vertex -8.69333243660162 2.32937140592268 0.0
vertex -8.69333243660162 2.32937140592268 12.0
endloop
endfacet
facet normal -0.965925826289068 0.258819045102521 0.0
outer loop
vertex -8.69333243660162 2.32937140592268 0.0
vertex -8.0013354152465 4.0 12.0
vertex -8.0013354152465 4.0 0.0
endloop
endfacet
facet normal 7.81676552916424e-017 -1.0 8.25103028078447e-018
outer loop
vertex -8.0013354152465 4.0 12.0
vertex -25.3 4.0 0.0
vertex -8.0013354152465 4.0 0.0
endloop
endfacet
facet normal 7.81676552916424e-017 -1.0 8.25103028078447e-018
outer loop
vertex -25.3 4.0 0.0
vertex -8.0013354152465 4.0 12.0
vertex -29.1 4.0 12.0
endloop
endfacet
facet normal 0.866025403784439 -0.5 0.0
outer loop
vertex -24.0856406460551 10.0 0.0
vertex -24.2454813220625 9.61411047216403 12.0
vertex -24.2454813220625 9.61411047216403 0.0
endloop
endfacet
facet normal 0.965925826289068 -0.258819045102521 0.0
outer loop
vertex -24.2454813220625 9.61411047216403 12.0
vertex -24.0856406460551 10.0 0.0
vertex -24.0856406460551 10.0 12.0
endloop
endfacet
facet normal 0.965925826289068 -0.258819045102521 0.0
outer loop
vertex -24.2454813220625 9.61411047216403 0.0
vertex -24.3 9.2 12.0
vertex -24.3 9.2 0.0
endloop
endfacet
facet normal 1.0 -3.11888846347642e-015 0.0
outer loop
vertex -24.3 9.2 12.0
vertex -24.2454813220625 9.61411047216403 0.0
vertex -24.2454813220625 9.61411047216403 12.0
endloop
endfacet
facet normal 1.0 -3.11888846347642e-015 0.0
outer loop
vertex -24.3 9.2 0.0
vertex -24.2454813220625 8.78588952783596 12.0
vertex -24.2454813220625 8.78588952783596 0.0
endloop
endfacet
facet normal 0.965925826289068 0.258819045102521 0.0
outer loop
vertex -24.2454813220625 8.78588952783596 12.0
vertex -24.3 9.2 0.0
vertex -24.3 9.2 12.0
endloop
endfacet
facet normal 0.965925826289068 0.258819045102521 0.0
outer loop
vertex -24.2454813220625 8.78588952783596 0.0
vertex -24.0856406460551 8.4 12.0
vertex -24.0856406460551 8.4 0.0
endloop
endfacet
facet normal 0.866025403784438 0.500000000000002 0.0
outer loop
vertex -24.0856406460551 8.4 12.0
vertex -24.2454813220625 8.78588952783596 0.0
vertex -24.2454813220625 8.78588952783596 12.0
endloop
endfacet
facet normal 0.866025403784438 0.500000000000002 0.0
outer loop
vertex -24.0856406460551 8.4 0.0
vertex -23.8313708498985 8.06862915010152 12.0
vertex -23.8313708498985 8.06862915010152 0.0
endloop
endfacet
facet normal 0.707106781186548 0.707106781186547 0.0
outer loop
vertex -23.8313708498985 8.06862915010152 12.0
vertex -24.0856406460551 8.4 0.0
vertex -24.0856406460551 8.4 12.0
endloop
endfacet
facet normal 0.707106781186548 0.707106781186547 0.0
outer loop
vertex -23.8313708498985 8.06862915010152 12.0
vertex -23.5 7.8143593539449 0.0
vertex -23.8313708498985 8.06862915010152 0.0
endloop
endfacet
facet normal 0.500000000000001 0.866025403784438 0.0
outer loop
vertex -23.5 7.8143593539449 0.0
vertex -23.8313708498985 8.06862915010152 12.0
vertex -23.5 7.8143593539449 12.0
endloop
endfacet
facet normal 0.500000000000001 0.866025403784438 0.0
outer loop
vertex -23.5 7.8143593539449 12.0
vertex -23.114110472164 7.65451867793749 0.0
vertex -23.5 7.8143593539449 0.0
endloop
endfacet
facet normal 0.258819045102521 0.965925826289068 0.0
outer loop
vertex -23.114110472164 7.65451867793749 0.0
vertex -23.5 7.8143593539449 12.0
vertex -23.114110472164 7.65451867793749 12.0
endloop
endfacet
facet normal 0.258819045102521 0.965925826289068 0.0
outer loop
vertex -23.114110472164 7.65451867793749 12.0
vertex -22.7 7.6 0.0
vertex -23.114110472164 7.65451867793749 0.0
endloop
endfacet
facet normal -4.45555494782345e-016 1.0 0.0
outer loop
vertex -22.7 7.6 0.0
vertex -23.114110472164 7.65451867793749 12.0
vertex -22.7 7.6 12.0
endloop
endfacet
facet normal -4.45555494782345e-016 1.0 0.0
outer loop
vertex -22.7 7.6 12.0
vertex -22.285889527836 7.65451867793749 0.0
vertex -22.7 7.6 0.0
endloop
endfacet
facet normal -0.258819045102521 0.965925826289068 0.0
outer loop
vertex -22.285889527836 7.65451867793749 0.0
vertex -22.7 7.6 12.0
vertex -22.285889527836 7.65451867793749 12.0
endloop
endfacet
facet normal -0.258819045102521 0.965925826289068 0.0
outer loop
vertex -22.285889527836 7.65451867793749 12.0
vertex -21.9 7.8143593539449 0.0
vertex -22.285889527836 7.65451867793749 0.0
endloop
endfacet
facet normal -0.5 0.866025403784439 0.0
outer loop
vertex -21.9 7.8143593539449 0.0
vertex -22.285889527836 7.65451867793749 12.0
vertex -21.9 7.8143593539449 12.0
endloop
endfacet
facet normal -0.5 0.866025403784439 0.0
outer loop
vertex -21.9 7.8143593539449 12.0
vertex -21.5686291501015 8.06862915010152 0.0
vertex -21.9 7.8143593539449 0.0
endloop
endfacet
facet normal -0.707106781186547 0.707106781186548 0.0
outer loop
vertex -21.5686291501015 8.06862915010152 0.0
vertex -21.9 7.8143593539449 12.0
vertex -21.5686291501015 8.06862915010152 12.0
endloop
endfacet
facet normal -0.866025403784438 0.500000000000002 0.0
outer loop
vertex -21.3143593539449 8.4 12.0
vertex -21.5686291501015 8.06862915010152 0.0
vertex -21.5686291501015 8.06862915010152 12.0
endloop
endfacet
facet normal -0.707106781186547 0.707106781186548 0.0
outer loop
vertex -21.5686291501015 8.06862915010152 0.0
vertex -21.3143593539449 8.4 12.0
vertex -21.3143593539449 8.4 0.0
endloop
endfacet
facet normal -0.965925826289068 0.258819045102521 0.0
outer loop
vertex -21.1545186779375 8.78588952783596 12.0
vertex -21.3143593539449 8.4 0.0
vertex -21.3143593539449 8.4 12.0
endloop
endfacet
facet normal -0.866025403784438 0.500000000000002 0.0
outer loop
vertex -21.3143593539449 8.4 0.0
vertex -21.1545186779375 8.78588952783596 12.0
vertex -21.1545186779375 8.78588952783596 0.0
endloop
endfacet
facet normal -1.0 -2.22777747391173e-016 0.0
outer loop
vertex -21.1 9.2 12.0
vertex -21.1545186779375 8.78588952783596 0.0
vertex -21.1545186779375 8.78588952783596 12.0
endloop
endfacet
facet normal -0.965925826289068 0.258819045102521 0.0
outer loop
vertex -21.1545186779375 8.78588952783596 0.0
vertex -21.1 9.2 12.0
vertex -21.1 9.2 0.0
endloop
endfacet
facet normal -0.965925826289068 -0.25881904510252 0.0
outer loop
vertex -21.1545186779375 9.61411047216403 12.0
vertex -21.1 9.2 0.0
vertex -21.1 9.2 12.0
endloop
endfacet
facet normal -1.0 -2.22777747391173e-016 0.0
outer loop
vertex -21.1 9.2 0.0
vertex -21.1545186779375 9.61411047216403 12.0
vertex -21.1545186779375 9.61411047216403 0.0
endloop
endfacet
facet normal -0.866025403784438 -0.500000000000001 0.0
outer loop
vertex -21.3143593539449 10.0 12.0
vertex -21.1545186779375 9.61411047216403 0.0
vertex -21.1545186779375 9.61411047216403 12.0
endloop
endfacet
facet normal -0.965925826289068 -0.25881904510252 0.0
outer loop
vertex -21.1545186779375 9.61411047216403 0.0
vertex -21.3143593539449 10.0 12.0
vertex -21.3143593539449 10.0 0.0
endloop
endfacet
facet normal -0.707106781186548 -0.707106781186547 0.0
outer loop
vertex -21.5686291501015 10.3313708498985 12.0
vertex -21.3143593539449 10.0 0.0
vertex -21.3143593539449 10.0 12.0
endloop
endfacet
facet normal -0.866025403784438 -0.500000000000001 0.0
outer loop
vertex -21.3143593539449 10.0 0.0
vertex -21.5686291501015 10.3313708498985 12.0
vertex -21.5686291501015 10.3313708498985 0.0
endloop
endfacet
facet normal -0.707106781186548 -0.707106781186547 0.0
outer loop
vertex -21.5686291501015 10.3313708498985 12.0
vertex -21.9 10.5856406460551 0.0
vertex -21.5686291501015 10.3313708498985 0.0
endloop
endfacet
facet normal -0.500000000000001 -0.866025403784438 0.0
outer loop
vertex -21.9 10.5856406460551 0.0
vertex -21.5686291501015 10.3313708498985 12.0
vertex -21.9 10.5856406460551 12.0
endloop
endfacet
facet normal -0.500000000000001 -0.866025403784438 0.0
outer loop
vertex -21.9 10.5856406460551 12.0
vertex -22.285889527836 10.7454813220625 0.0
vertex -21.9 10.5856406460551 0.0
endloop
endfacet
facet normal -0.258819045102521 -0.965925826289068 0.0
outer loop
vertex -22.285889527836 10.7454813220625 0.0
vertex -21.9 10.5856406460551 12.0
vertex -22.285889527836 10.7454813220625 12.0
endloop
endfacet
facet normal -0.258819045102521 -0.965925826289068 0.0
outer loop
vertex -22.285889527836 10.7454813220625 12.0
vertex -22.7 10.8 0.0
vertex -22.285889527836 10.7454813220625 0.0
endloop
endfacet
facet normal 4.45555494782345e-016 -1.0 0.0
outer loop
vertex -22.7 10.8 0.0
vertex -22.285889527836 10.7454813220625 12.0
vertex -22.7 10.8 12.0
endloop
endfacet
facet normal 4.45555494782345e-016 -1.0 0.0
outer loop
vertex -22.7 10.8 12.0
vertex -23.114110472164 10.7454813220625 0.0
vertex -22.7 10.8 0.0
endloop
endfacet
facet normal 0.25881904510252 -0.965925826289069 0.0
outer loop
vertex -23.114110472164 10.7454813220625 0.0
vertex -22.7 10.8 12.0
vertex -23.114110472164 10.7454813220625 12.0
endloop
endfacet
facet normal 0.25881904510252 -0.965925826289069 0.0
outer loop
vertex -23.114110472164 10.7454813220625 12.0
vertex -23.5 10.5856406460551 0.0
vertex -23.114110472164 10.7454813220625 0.0
endloop
endfacet
facet normal 0.499999999999999 -0.866025403784439 0.0
outer loop
vertex -23.5 10.5856406460551 0.0
vertex -23.114110472164 10.7454813220625 12.0
vertex -23.5 10.5856406460551 12.0
endloop
endfacet
facet normal 0.499999999999999 -0.866025403784439 0.0
outer loop
vertex -23.5 10.5856406460551 12.0
vertex -23.8313708498985 10.3313708498985 0.0
vertex -23.5 10.5856406460551 0.0
endloop
endfacet
facet normal 0.707106781186547 -0.707106781186548 0.0
outer loop
vertex -23.8313708498985 10.3313708498985 0.0
vertex -23.5 10.5856406460551 12.0
vertex -23.8313708498985 10.3313708498985 12.0
endloop
endfacet
facet normal 0.707106781186547 -0.707106781186548 0.0
outer loop
vertex -23.8313708498985 10.3313708498985 0.0
vertex -24.0856406460551 10.0 12.0
vertex -24.0856406460551 10.0 0.0
endloop
endfacet
facet normal 0.866025403784439 -0.5 0.0
outer loop
vertex -24.0856406460551 10.0 12.0
vertex -23.8313708498985 10.3313708498985 0.0
vertex -23.8313708498985 10.3313708498985 12.0
endloop
endfacet
facet normal 0.258819045102521 0.965925826289068 0.0
outer loop
vertex -23.114110472164 17.2545186779375 12.0
vertex -22.7 17.2 0.0
vertex -23.114110472164 17.2545186779375 0.0
endloop
endfacet
facet normal -4.45555494782345e-016 1.0 0.0
outer loop
vertex -22.7 17.2 0.0
vertex -23.114110472164 17.2545186779375 12.0
vertex -22.7 17.2 12.0
endloop
endfacet
facet normal -4.45555494782345e-016 1.0 0.0
outer loop
vertex -22.7 17.2 12.0
vertex -22.285889527836 17.2545186779375 0.0
vertex -22.7 17.2 0.0
endloop
endfacet
facet normal -0.258819045102521 0.965925826289068 0.0
outer loop
vertex -22.285889527836 17.2545186779375 0.0
vertex -22.7 17.2 12.0
vertex -22.285889527836 17.2545186779375 12.0
endloop
endfacet
facet normal -0.258819045102521 0.965925826289068 0.0
outer loop
vertex -22.285889527836 17.2545186779375 12.0
vertex -21.9 17.4143593539449 0.0
vertex -22.285889527836 17.2545186779375 0.0
endloop
endfacet
facet normal -0.500000000000001 0.866025403784438 0.0
outer loop
vertex -21.9 17.4143593539449 0.0
vertex -22.285889527836 17.2545186779375 12.0
vertex -21.9 17.4143593539449 12.0
endloop
endfacet
facet normal -0.500000000000001 0.866025403784438 0.0
outer loop
vertex -21.9 17.4143593539449 12.0
vertex -21.5686291501015 17.6686291501015 0.0
vertex -21.9 17.4143593539449 0.0
endloop
endfacet
facet normal -0.707106781186546 0.707106781186549 0.0
outer loop
vertex -21.5686291501015 17.6686291501015 0.0
vertex -21.9 17.4143593539449 12.0
vertex -21.5686291501015 17.6686291501015 12.0
endloop
endfacet
facet normal -0.866025403784437 0.500000000000003 0.0
outer loop
vertex -21.3143593539449 18.0 12.0
vertex -21.5686291501015 17.6686291501015 0.0
vertex -21.5686291501015 17.6686291501015 12.0
endloop
endfacet
facet normal -0.707106781186546 0.707106781186549 0.0
outer loop
vertex -21.5686291501015 17.6686291501015 0.0
vertex -21.3143593539449 18.0 12.0
vertex -21.3143593539449 18.0 0.0
endloop
endfacet
facet normal -0.965925826289068 0.258819045102521 0.0
outer loop
vertex -21.1545186779375 18.385889527836 12.0
vertex -21.3143593539449 18.0 0.0
vertex -21.3143593539449 18.0 12.0
endloop
endfacet
facet normal -0.866025403784437 0.500000000000003 0.0
outer loop
vertex -21.3143593539449 18.0 0.0
vertex -21.1545186779375 18.385889527836 12.0
vertex -21.1545186779375 18.385889527836 0.0
endloop
endfacet
facet normal -1.0 -4.45555494782345e-016 0.0
outer loop
vertex -21.1 18.8 12.0
vertex -21.1545186779375 18.385889527836 0.0
vertex -21.1545186779375 18.385889527836 12.0
endloop
endfacet
facet normal -0.965925826289068 0.258819045102521 0.0
outer loop
vertex -21.1545186779375 18.385889527836 0.0
vertex -21.1 18.8 12.0
vertex -21.1 18.8 0.0
endloop
endfacet
facet normal -0.965925826289068 -0.258819045102521 0.0
outer loop
vertex -21.1545186779375 19.214110472164 12.0
vertex -21.1 18.8 0.0
vertex -21.1 18.8 12.0
endloop
endfacet
facet normal -1.0 -4.45555494782345e-016 0.0
outer loop
vertex -21.1 18.8 0.0
vertex -21.1545186779375 19.214110472164 12.0
vertex -21.1545186779375 19.214110472164 0.0
endloop
endfacet
facet normal -0.866025403784438 -0.500000000000001 0.0
outer loop
vertex -21.3143593539449 19.6 12.0
vertex -21.1545186779375 19.214110472164 0.0
vertex -21.1545186779375 19.214110472164 12.0
endloop
endfacet
facet normal -0.965925826289068 -0.258819045102521 0.0
outer loop
vertex -21.1545186779375 19.214110472164 0.0
vertex -21.3143593539449 19.6 12.0
vertex -21.3143593539449 19.6 0.0
endloop
endfacet
facet normal -0.707106781186549 -0.707106781186546 0.0
outer loop
vertex -21.5686291501015 19.9313708498985 12.0
vertex -21.3143593539449 19.6 0.0
vertex -21.3143593539449 19.6 12.0
endloop
endfacet
facet normal -0.866025403784438 -0.500000000000001 0.0
outer loop
vertex -21.3143593539449 19.6 0.0
vertex -21.5686291501015 19.9313708498985 12.0
vertex -21.5686291501015 19.9313708498985 0.0
endloop
endfacet
facet normal -0.707106781186549 -0.707106781186546 0.0
outer loop
vertex -21.5686291501015 19.9313708498985 12.0
vertex -21.9 20.1856406460551 0.0
vertex -21.5686291501015 19.9313708498985 0.0
endloop
endfacet
facet normal -0.500000000000003 -0.866025403784437 0.0
outer loop
vertex -21.9 20.1856406460551 0.0
vertex -21.5686291501015 19.9313708498985 12.0
vertex -21.9 20.1856406460551 12.0
endloop
endfacet
facet normal -0.500000000000003 -0.866025403784437 0.0
outer loop
vertex -21.9 20.1856406460551 12.0
vertex -22.285889527836 20.3454813220625 0.0
vertex -21.9 20.1856406460551 0.0
endloop
endfacet
facet normal -0.258819045102521 -0.965925826289068 0.0
outer loop
vertex -22.285889527836 20.3454813220625 0.0
vertex -21.9 20.1856406460551 12.0
vertex -22.285889527836 20.3454813220625 12.0
endloop
endfacet
facet normal -0.258819045102521 -0.965925826289068 0.0
outer loop
vertex -22.285889527836 20.3454813220625 12.0
vertex -22.7 20.4 0.0
vertex -22.285889527836 20.3454813220625 0.0
endloop
endfacet
facet normal 4.45555494782345e-016 -1.0 0.0
outer loop
vertex -22.7 20.4 0.0
vertex -22.285889527836 20.3454813220625 12.0
vertex -22.7 20.4 12.0
endloop
endfacet
facet normal 4.45555494782345e-016 -1.0 0.0
outer loop
vertex -22.7 20.4 12.0
vertex -23.114110472164 20.3454813220625 0.0
vertex -22.7 20.4 0.0
endloop
endfacet
facet normal 0.258819045102521 -0.965925826289068 0.0
outer loop
vertex -23.114110472164 20.3454813220625 0.0
vertex -22.7 20.4 12.0
vertex -23.114110472164 20.3454813220625 12.0
endloop
endfacet
facet normal 0.258819045102521 -0.965925826289068 0.0
outer loop
vertex -23.114110472164 20.3454813220625 12.0
vertex -23.5 20.1856406460551 0.0
vertex -23.114110472164 20.3454813220625 0.0
endloop
endfacet
facet normal 0.500000000000001 -0.866025403784438 0.0
outer loop
vertex -23.5 20.1856406460551 0.0
vertex -23.114110472164 20.3454813220625 12.0
vertex -23.5 20.1856406460551 12.0
endloop
endfacet
facet normal 0.500000000000001 -0.866025403784438 0.0
outer loop
vertex -23.5 20.1856406460551 12.0
vertex -23.8313708498985 19.9313708498985 0.0
vertex -23.5 20.1856406460551 0.0
endloop
endfacet
facet normal 0.707106781186546 -0.707106781186549 0.0
outer loop
vertex -23.8313708498985 19.9313708498985 0.0
vertex -23.5 20.1856406460551 12.0
vertex -23.8313708498985 19.9313708498985 12.0
endloop
endfacet
facet normal 0.707106781186546 -0.707106781186549 0.0
outer loop
vertex -23.8313708498985 19.9313708498985 0.0
vertex -24.0856406460551 19.6 12.0
vertex -24.0856406460551 19.6 0.0
endloop
endfacet
facet normal 0.866025403784439 -0.5 0.0
outer loop
vertex -24.0856406460551 19.6 12.0
vertex -23.8313708498985 19.9313708498985 0.0
vertex -23.8313708498985 19.9313708498985 12.0
endloop
endfacet
facet normal 0.866025403784439 -0.5 0.0
outer loop
vertex -24.0856406460551 19.6 0.0
vertex -24.2454813220625 19.214110472164 12.0
vertex -24.2454813220625 19.214110472164 0.0
endloop
endfacet
facet normal 0.965925826289068 -0.258819045102521 0.0
outer loop
vertex -24.2454813220625 19.214110472164 12.0
vertex -24.0856406460551 19.6 0.0
vertex -24.0856406460551 19.6 12.0
endloop
endfacet
facet normal 0.965925826289068 -0.258819045102521 0.0
outer loop
vertex -24.2454813220625 19.214110472164 0.0
vertex -24.3 18.8 12.0
vertex -24.3 18.8 0.0
endloop
endfacet
facet normal 1.0 -2.89611071608524e-015 0.0
outer loop
vertex -24.3 18.8 12.0
vertex -24.2454813220625 19.214110472164 0.0
vertex -24.2454813220625 19.214110472164 12.0
endloop
endfacet
facet normal 1.0 -2.89611071608524e-015 0.0
outer loop
vertex -24.3 18.8 0.0
vertex -24.2454813220625 18.385889527836 12.0
vertex -24.2454813220625 18.385889527836 0.0
endloop
endfacet
facet normal 0.965925826289068 0.258819045102521 0.0
outer loop
vertex -24.2454813220625 18.385889527836 12.0
vertex -24.3 18.8 0.0
vertex -24.3 18.8 12.0
endloop
endfacet
facet normal 0.965925826289068 0.258819045102521 0.0
outer loop
vertex -24.2454813220625 18.385889527836 0.0
vertex -24.0856406460551 18.0 12.0
vertex -24.0856406460551 18.0 0.0
endloop
endfacet
facet normal 0.866025403784438 0.500000000000001 0.0
outer loop
vertex -24.0856406460551 18.0 12.0
vertex -24.2454813220625 18.385889527836 0.0
vertex -24.2454813220625 18.385889527836 12.0
endloop
endfacet
facet normal 0.866025403784438 0.500000000000001 0.0
outer loop
vertex -24.0856406460551 18.0 0.0
vertex -23.8313708498985 17.6686291501015 12.0
vertex -23.8313708498985 17.6686291501015 0.0
endloop
endfacet
facet normal 0.707106781186549 0.707106781186546 0.0
outer loop
vertex -23.8313708498985 17.6686291501015 12.0
vertex -24.0856406460551 18.0 0.0
vertex -24.0856406460551 18.0 12.0
endloop
endfacet
facet normal 0.707106781186549 0.707106781186546 0.0
outer loop
vertex -23.8313708498985 17.6686291501015 12.0
vertex -23.5 17.4143593539449 0.0
vertex -23.8313708498985 17.6686291501015 0.0
endloop
endfacet
facet normal 0.500000000000003 0.866025403784437 0.0
outer loop
vertex -23.5 17.4143593539449 0.0
vertex -23.8313708498985 17.6686291501015 12.0
vertex -23.5 17.4143593539449 12.0
endloop
endfacet
facet normal 0.500000000000003 0.866025403784437 0.0
outer loop
vertex -23.5 17.4143593539449 12.0
vertex -23.114110472164 17.2545186779375 0.0
vertex -23.5 17.4143593539449 0.0
endloop
endfacet
facet normal 0.258819045102521 0.965925826289068 0.0
outer loop
vertex -23.114110472164 17.2545186779375 0.0
vertex -23.5 17.4143593539449 12.0
vertex -23.114110472164 17.2545186779375 12.0
endloop
endfacet
facet normal -0.953342225350744 0.0 -0.301891704694402
outer loop
vertex -29.1 24.0 12.0
vertex -25.3 4.0 0.0
vertex -29.1 4.0 12.0
endloop
endfacet
facet normal -0.953342225350744 0.0 -0.301891704694402
outer loop
vertex -25.3 4.0 0.0
vertex -29.1 24.0 12.0
vertex -25.3 24.0 0.0
endloop
endfacet
facet normal 1.45752925612079e-016 1.0 2.38023930939081e-016
outer loop
vertex -20.1 9.00000000000001 4.8156512300439e-031
vertex 12.0 9.0 12.0
vertex 12.0 9.0 0.0
endloop
endfacet
facet normal 1.45752925612079e-016 1.0 2.38023930939081e-016
outer loop
vertex 12.0 9.0 12.0
vertex -20.1 9.00000000000001 4.8156512300439e-031
vertex -15.0 9.0 12.0
endloop
endfacet
facet normal 0.920330918458475 8.69786743532053e-017 -0.391140640344852
outer loop
vertex -20.1 9.00000000000001 4.8156512300439e-031
vertex -15.0 24.0 12.0
vertex -15.0 9.0 12.0
endloop
endfacet
facet normal 0.920330918458475 8.69786743532053e-017 -0.391140640344852
outer loop
vertex -15.0 24.0 12.0
vertex -20.1 9.00000000000001 4.8156512300439e-031
vertex -20.1 24.0 0.0
endloop
endfacet
endsolid Y Axis Endstop Holder
